<?xml version="1.0" encoding="UTF-8"?>
<svg version="1.1" xmlns="http://www.w3.org/2000/svg" width="1000" height="1000">
<path d="M0 0 C82.5 0 165 0 250 0 C250 61.38 250 122.76 250 186 C264.82962524 175.10010061 264.82962524 175.10010061 279.5 164 C286.88496796 158.34459703 294.33198255 152.7852703 301.8359375 147.2890625 C307.77671433 142.92722968 313.6475326 138.47945452 319.5 134 C326.88641792 128.34646605 334.33194466 122.78529806 341.8359375 117.2890625 C347.7767179 112.92722706 353.64740917 108.47929729 359.5 104 C370.01139798 95.9586937 380.65631162 88.10939526 391.33398438 80.29101562 C401.35616884 72.94811189 411.29725718 65.51264001 421.16357422 57.96142578 C427.66581386 52.99335512 434.23453424 48.12420401 440.8359375 43.2890625 C446.77671705 38.92722768 452.6474413 34.47933864 458.5 30 C550.23945826 -40.1906038 540.15357367 0 750 0 C750 247.5 750 495 750 750 C832.5 750 915 750 1000 750 C1000 832.5 1000 915 1000 1000 C670 1000 340 1000 0 1000 C0 670 0 340 0 0 Z M250 313 C250 457.21 250 601.42 250 750 C332.5 750 415 750 500 750 C500 605.79 500 461.58 500 313 C417.5 313 335 313 250 313 Z " fill="#000000" transform="translate(0,0)"/>
</svg>
